<svg xmlns="http://www.w3.org/2000/svg" viewBox="0 0 100 110">
  <!-- Cabeza grande, negra, borde azul -->
  <ellipse cx="50" cy="32" rx="28" ry="22" fill="#181818" stroke="#2980d9" stroke-width="4"/>
  <!-- Ojos y boca azul brillante -->
  <ellipse cx="41" cy="32" rx="3" ry="4" fill="#aef1fb"/>
  <ellipse cx="59" cy="32" rx="3" ry="4" fill="#aef1fb"/>
  <ellipse cx="50" cy="41" rx="4" ry="2" fill="#aef1fb"/>
  <!-- Cuerpo blanco/gris claro -->
  <ellipse cx="50" cy="70" rx="20" ry="22" fill="#f8f8f8" stroke="#222" stroke-width="2"/>
  <!-- Detalle geométrico en el pecho (azul y gris) -->
  <rect x="46" y="75" width="8" height="10" rx="2" fill="#2980d9" transform="rotate(-20 50 80)"/>
  <rect x="42" y="80" width="6" height="6" rx="1.5" fill="#222" transform="rotate(15 45 83)"/>
  <!-- Brazos -->
  <ellipse cx="22" cy="70" rx="6" ry="14" fill="#f8f8f8" stroke="#222" stroke-width="2"/>
  <ellipse cx="78" cy="70" rx="6" ry="14" fill="#f8f8f8" stroke="#222" stroke-width="2"/>
  <!-- Hombros -->
  <circle cx="28" cy="60" r="5" fill="#2980d9" stroke="#222" stroke-width="1"/>
  <circle cx="72" cy="60" r="5" fill="#2980d9" stroke="#222" stroke-width="1"/>
  <!-- Manos -->
  <ellipse cx="20" cy="85" rx="4" ry="3" fill="#aef1fb" stroke="#222" stroke-width="1"/>
  <ellipse cx="80" cy="85" rx="4" ry="3" fill="#aef1fb" stroke="#222" stroke-width="1"/>
  <!-- Piernas -->
  <ellipse cx="40" cy="104" rx="4" ry="6" fill="#222"/>
  <ellipse cx="60" cy="104" rx="4" ry="6" fill="#222"/>
  <!-- Sombra -->
  <ellipse cx="50" cy="109" rx="16" ry="3" fill="#222" opacity="0.15"/>
</svg>
