<svg xmlns="http://www.w3.org/2000/svg" viewBox="0 0 100 100">
  <!-- Cabeza grande y redondeada -->
  <rect x="25" y="15" rx="18" ry="18" width="50" height="36" fill="#2980d9" stroke="#222" stroke-width="2"/>
  <!-- Pantalla de la cara -->
  <rect x="33" y="23" rx="10" ry="10" width="34" height="20" fill="#222"/>
  <!-- Ojos rectangulares y brillantes -->
  <rect x="40" y="28" width="6" height="8" rx="3" fill="#aef1fb"/>
  <rect x="54" y="28" width="6" height="8" rx="3" fill="#aef1fb"/>
  <!-- Brillo en los ojos -->
  <rect x="42" y="30" width="2" height="3" rx="1" fill="#fff" opacity="0.7"/>
  <rect x="56" y="30" width="2" height="3" rx="1" fill="#fff" opacity="0.7"/>
  <!-- Cuerpo pequeño -->
  <ellipse cx="50" cy="62" rx="14" ry="10" fill="#2980d9" stroke="#222" stroke-width="2"/>
  <!-- Detalle en el pecho -->
  <ellipse cx="50" cy="65" rx="4" ry="2" fill="#fff" opacity="0.7"/>
  <!-- Brazos -->
  <rect x="20" y="50" width="8" height="18" rx="4" fill="#2980d9" stroke="#222" stroke-width="2"/>
  <rect x="72" y="50" width="8" height="18" rx="4" fill="#2980d9" stroke="#222" stroke-width="2"/>
  <!-- Mano izquierda (levantada, sosteniendo bombilla) -->
  <ellipse cx="24" cy="50" rx="4" ry="4" fill="#fff" stroke="#222" stroke-width="1"/>
  <!-- Bombilla -->
  <ellipse cx="18" cy="41" rx="6" ry="7" fill="#ffe066" stroke="#e1c200" stroke-width="1.5"/>
  <rect x="16" y="47" width="4" height="4" rx="1.5" fill="#bbb" stroke="#888" stroke-width="0.5"/>
  <!-- Mano derecha -->
  <ellipse cx="76" cy="68" rx="4" ry="4" fill="#fff" stroke="#222" stroke-width="1"/>
  <!-- Piernas -->
  <rect x="42" y="74" width="5" height="14" rx="2.5" fill="#222"/>
  <rect x="53" y="74" width="5" height="14" rx="2.5" fill="#222"/>
  <!-- Sombra bajo el robot -->
  <ellipse cx="50" cy="92" rx="16" ry="3" fill="#222" opacity="0.2"/>
</svg>
